<?xml version="1.0" standalone="no"?>
<!DOCTYPE svg PUBLIC "-//W3C//DTD SVG 20010904//EN"
 "http://www.w3.org/TR/2001/REC-SVG-20010904/DTD/svg10.dtd">
<svg version="1.0" xmlns="http://www.w3.org/2000/svg"
 width="2904.000000pt" height="4139.000000pt" viewBox="0 0 2904.000000 4139.000000"
 preserveAspectRatio="xMidYMid meet">

<g transform="translate(0.000000,4139.000000) scale(0.100000,-0.100000)"
fill="#000000" stroke="none">
<path d="M14395 41371 c-97 -25 -138 -42 -279 -111 -403 -197 -1022 -643
-1921 -1385 -501 -413 -837 -701 -1980 -1695 -1750 -1522 -2293 -1960 -2655
-2141 -154 -77 -198 -76 -385 15 -334 161 -763 453 -2355 1601 -1270 916
-1810 1294 -2415 1691 -385 253 -415 272 -655 417 -537 324 -974 537 -1256
613 -139 37 -297 40 -367 5 -56 -27 -93 -72 -113 -137 -12 -41 -14 -1449 -14
-10028 0 -9689 2 -10261 30 -10746 123 -2100 594 -4145 1407 -6110 338 -817
792 -1730 1250 -2515 754 -1291 1669 -2553 2727 -3760 673 -767 1491 -1597
2296 -2330 1692 -1539 3660 -2977 5666 -4137 303 -176 789 -440 1052 -572 l92
-46 93 46 c1016 511 2369 1340 3562 2182 1539 1088 2904 2232 4166 3492 986
985 1766 1879 2550 2925 1117 1489 2045 3102 2712 4715 673 1625 1114 3315
1311 5025 52 448 72 683 108 1275 9 148 13 2655 15 10359 3 9297 2 10170 -13
10220 -99 341 -730 137 -1974 -639 -599 -374 -1391 -921 -2845 -1965 -1560
-1120 -1991 -1412 -2330 -1576 -197 -96 -239 -98 -395 -20 -362 181 -905 619
-2655 2141 -1136 988 -1478 1281 -1980 1695 -899 742 -1515 1186 -1920 1385
-257 126 -375 150 -530 111z m275 -3483 c418 -127 1252 -722 2685 -1917 342
-285 540 -454 1605 -1366 1491 -1278 1998 -1692 2359 -1931 189 -124 262 -159
337 -159 53 0 74 6 155 47 280 140 680 453 1944 1528 699 594 876 742 1140
956 897 728 1359 1010 1529 933 14 -7 32 -26 41 -44 13 -30 15 -502 15 -4644
l0 -4611 -4486 2 -4486 3 -43 116 c-135 366 -363 753 -631 1069 -99 118 -320
331 -434 419 -295 229 -649 411 -995 510 -394 113 -917 147 -1332 85 -979
-145 -1767 -819 -2128 -1819 -206 -572 -223 -1189 -49 -1764 152 -499 449
-970 829 -1314 467 -423 1024 -664 1630 -707 85 -6 838 -10 1908 -10 l1767 0
0 -1670 0 -1670 -1755 0 -1755 0 0 -8359 0 -8360 -31 11 c-54 19 -656 320
-854 428 -1509 819 -3022 1899 -4350 3104 -568 515 -1202 1157 -1705 1726
-2187 2474 -3688 5330 -4444 8456 -310 1281 -494 2609 -558 4029 -10 233 -13
1723 -13 7632 l0 7342 21 28 c33 45 90 60 166 44 292 -59 883 -484 1968 -1417
168 -144 512 -440 764 -659 1299 -1123 1732 -1444 1922 -1422 210 23 826 495
2306 1765 291 248 765 656 1056 905 1923 1649 2892 2392 3449 2645 207 94 300
106 453 60z"/>
</g>
</svg>
